HIERARCHY
ROOT joint_Root
{
	OFFSET 0.0 0.0 0.0
	CHANNELS 6 Xposition Yposition Zposition Zrotation Xrotation Yrotation 
	JOINT Hips
	{
		OFFSET 4.5925 91.4895 -427.239
		CHANNELS 6 Xposition Yposition Zposition Zrotation Xrotation Yrotation 
		JOINT Spine
		{
			OFFSET 15.7357 0.0 0.0
			CHANNELS 6 Xposition Yposition Zposition Zrotation Xrotation Yrotation 
			JOINT Chest
			{
				OFFSET 8.98455 -0.406207 0.0
				CHANNELS 6 Xposition Yposition Zposition Zrotation Xrotation Yrotation 
				JOINT Neck
				{
					OFFSET 16.3773 0.0 0.0
					CHANNELS 6 Xposition Yposition Zposition Zrotation Xrotation Yrotation 
					JOINT Head
					{
						OFFSET 6.45672 0.0 0.0
						CHANNELS 6 Xposition Yposition Zposition Zrotation Xrotation Yrotation 
						End Site
						{
							OFFSET 0.0 0.0 0.0
						}
					}
				}
				JOINT Shoulder_L
				{
					OFFSET 12.9942 -0.242716 4.98039
					CHANNELS 6 Xposition Yposition Zposition Zrotation Xrotation Yrotation 
					JOINT UpperArm_L
					{
						OFFSET 5.34809 0.0 0.0
						CHANNELS 6 Xposition Yposition Zposition Zrotation Xrotation Yrotation 
						JOINT LowerArm_L
						{
							OFFSET 24.3286 1.87007e-05 0.0
							CHANNELS 6 Xposition Yposition Zposition Zrotation Xrotation Yrotation 
							JOINT Hand_L
							{
								OFFSET 22.2916 0.0 0.0
								CHANNELS 6 Xposition Yposition Zposition Zrotation Xrotation Yrotation 
								End Site
								{
									OFFSET 0.0 0.0 0.0
								}
							}
						}
					}
				}
				JOINT Shoulder_R
				{
					OFFSET 12.9945 -0.242716 -4.98039
					CHANNELS 6 Xposition Yposition Zposition Zrotation Xrotation Yrotation 
					JOINT UpperArm_R
					{
						OFFSET -5.34813 0.0 0.0
						CHANNELS 6 Xposition Yposition Zposition Zrotation Xrotation Yrotation 
						JOINT LowerArm_R
						{
							OFFSET -24.3289 0.000322201 0.0
							CHANNELS 6 Xposition Yposition Zposition Zrotation Xrotation Yrotation 
							JOINT Hand_R
							{
								OFFSET -22.2915 -0.000108084 0.0
								CHANNELS 6 Xposition Yposition Zposition Zrotation Xrotation Yrotation 
								End Site
								{
									OFFSET 0.0 0.0 0.0
								}
							}
						}
					}
				}
			}
		}
		JOINT UpperLeg_L
		{
			OFFSET -2.19248 -6.46944 0.0
			CHANNELS 6 Xposition Yposition Zposition Zrotation Xrotation Yrotation 
			JOINT LowerLeg_L
			{
				OFFSET 39.0811 0.0 -1.23785e-05
				CHANNELS 6 Xposition Yposition Zposition Zrotation Xrotation Yrotation 
				JOINT Foot_L
				{
					OFFSET 40.9854 0.0 -1.26872e-05
					CHANNELS 6 Xposition Yposition Zposition Zrotation Xrotation Yrotation 
					JOINT Toes_L
					{
						OFFSET 11.7543 0.0 0.0
						CHANNELS 6 Xposition Yposition Zposition Zrotation Xrotation Yrotation 
						End Site
						{
							OFFSET 0.0 0.0 0.0
						}
					}
				}
			}
		}
		JOINT UpperLeg_R
		{
			OFFSET -2.19251 6.46944 0.0
			CHANNELS 6 Xposition Yposition Zposition Zrotation Xrotation Yrotation 
			JOINT LowerLeg_R
			{
				OFFSET -39.0811 -0.00228153 -0.0401928
				CHANNELS 6 Xposition Yposition Zposition Zrotation Xrotation Yrotation 
				JOINT Foot_R
				{
					OFFSET -40.9854 0.0 0.0
					CHANNELS 6 Xposition Yposition Zposition Zrotation Xrotation Yrotation 
					JOINT Toes_R
					{
						OFFSET -11.7543 0.0 0.0
						CHANNELS 6 Xposition Yposition Zposition Zrotation Xrotation Yrotation 
						End Site
						{
							OFFSET 0.0 0.0 0.0
						}
					}
				}
			}
		}
	}
}
MOTION
Frames:	7
Frame Time:	0.0333333
0.000000 0.000000 0.000000 0.000000 0.000000 -0.000000 -1.410740 90.382200 3.441570 89.822500 -3.637780 10.993000 15.735700 0.000005 -0.000001 87.090800 82.760400 -87.141800 8.984550 -0.406207 -0.000000 6.694510 -0.732055 -0.059168 16.377300 -0.000001 -0.000001 16.800600 -5.304580 1.991240 6.456720 -0.000001 -0.000000 10.252000 -6.474030 2.561880 12.994200 -0.242716 4.980390 -91.486800 4.959210 -73.287900 5.348090 -0.000007 -0.000001 -64.067600 35.346700 -13.895000 24.328600 0.000019 0.000005 7.828590 22.581800 -19.699800 22.291600 -0.000001 0.000005 6.504340 5.256190 1.268630 12.994500 -0.242716 -4.980390 88.169400 10.973700 -80.469000 -5.348130 -0.000001 -0.000004 -62.507500 33.850300 -9.830770 -24.328900 0.000322 -0.000009 1.429370 4.328890 -18.305200 -22.291500 -0.000108 -0.000004 12.158700 5.390940 -2.645360 -2.192480 -6.469440 -0.000000 -173.363000 -12.916800 3.999090 39.081100 -0.000007 -0.000012 -0.226469 0.386292 30.382000 40.985400 -0.000006 -0.000013 -0.745552 5.345370 -72.764900 11.754300 -0.000000 0.000003 -0.000232 -0.002099 -16.656400 -2.192510 6.469440 -0.000001 172.570000 20.531200 -174.550000 -39.081100 -0.002282 -0.040193 -0.238672 0.419889 29.954300 -40.985400 0.000008 0.000006 4.178090 15.210200 -73.926700 -11.754300 -0.000006 -0.000006 -0.001673 -0.024540 -17.571000
0.000000 0.000000 0.000000 0.000000 0.000000 -0.000000 -1.416130 90.396000 3.322300 89.882700 -3.644570 11.028100 15.735700 0.000005 -0.000001 86.824200 82.664500 -86.835300 8.984550 -0.406207 -0.000000 6.882910 -0.809978 0.026525 16.377300 -0.000001 -0.000001 16.555800 -5.403940 2.096160 6.456720 -0.000001 -0.000000 10.103500 -6.493180 2.781140 12.994200 -0.242716 4.980390 -91.490600 5.010570 -73.409300 5.348090 -0.000007 -0.000001 -63.600100 35.961000 -14.517500 24.328600 0.000019 0.000005 8.026350 22.529600 -20.204300 22.291600 -0.000001 0.000005 5.950670 5.268450 0.939630 12.994500 -0.242716 -4.980390 88.167400 11.007100 -80.486700 -5.348130 -0.000001 -0.000004 -62.411000 34.011500 -10.182900 -24.328900 0.000322 -0.000009 1.395180 4.172930 -18.518600 -22.291500 -0.000108 -0.000004 12.201900 5.390480 -2.630620 -2.192480 -6.469440 -0.000000 -173.422000 -12.943600 3.958220 39.081100 -0.000007 -0.000012 -0.226510 0.386780 30.354900 40.985400 -0.000006 -0.000013 -0.745931 5.340340 -72.663700 11.754300 -0.000000 0.000003 -0.000211 -0.001937 -16.650500 -2.192510 6.469440 -0.000001 172.545000 20.511100 -174.640000 -39.081100 -0.002282 -0.040193 -0.239814 0.420949 30.008600 -40.985400 0.000008 0.000006 4.196850 15.188600 -73.871300 -11.754300 -0.000006 -0.000006 -0.001663 -0.024420 -17.566100
0.000000 0.000000 0.000000 0.000000 0.000000 -0.000000 -1.439150 90.411000 3.196490 89.907400 -3.603030 11.085600 15.735700 0.000005 -0.000001 86.397900 82.559000 -86.368500 8.984550 -0.406207 -0.000000 7.087520 -0.931899 0.116517 16.377300 -0.000001 -0.000001 16.329100 -5.512770 2.224630 6.456720 -0.000001 -0.000000 10.017100 -6.538400 3.038520 12.994200 -0.242716 4.980390 -91.519400 5.120690 -73.449500 5.348090 -0.000007 -0.000001 -62.671500 36.551400 -15.403800 24.328600 0.000019 0.000005 8.545460 22.724800 -21.254400 22.291600 -0.000001 0.000005 5.226840 5.277080 0.705368 12.994500 -0.242716 -4.980390 88.171300 10.994300 -80.496100 -5.348130 -0.000001 -0.000004 -62.453700 34.163900 -10.520700 -24.328900 0.000322 -0.000009 1.382250 4.091780 -18.697000 -22.291500 -0.000108 -0.000004 12.185500 5.391530 -2.664700 -2.192480 -6.469440 -0.000000 -173.424000 -12.970900 3.917380 39.081100 -0.000007 -0.000012 -0.224026 0.382599 30.350900 40.985400 -0.000006 -0.000013 -0.729520 5.415750 -72.560800 11.754300 -0.000000 0.000003 -0.000219 -0.001995 -16.652600 -2.192510 6.469440 -0.000001 172.569000 20.508000 -174.688000 -39.081100 -0.002282 -0.040193 -0.234188 0.410802 30.033100 -40.985400 0.000008 0.000006 4.220800 15.136800 -73.805100 -11.754300 -0.000006 -0.000006 -0.001620 -0.023859 -17.543300
0.000000 0.000000 0.000000 0.000000 0.000000 -0.000000 -1.468170 90.419600 3.092150 89.915500 -3.562230 11.082400 15.735700 0.000005 -0.000001 86.157600 82.493300 -86.085600 8.984550 -0.406207 -0.000000 7.215140 -1.002810 0.206998 16.377300 -0.000001 -0.000001 16.199800 -5.679240 2.435740 6.456720 -0.000001 -0.000000 9.923880 -6.662650 3.267730 12.994200 -0.242716 4.980390 -91.541900 5.187530 -73.421300 5.348090 -0.000007 -0.000001 -61.629600 36.609300 -16.437500 24.328600 0.000019 0.000005 9.131290 22.707600 -22.605600 22.291600 -0.000001 0.000005 4.860580 5.285830 0.466395 12.994500 -0.242716 -4.980390 88.165600 10.953600 -80.432700 -5.348130 -0.000001 -0.000004 -62.610400 34.340100 -10.732100 -24.328900 0.000322 -0.000009 1.389320 4.062660 -18.911200 -22.291500 -0.000108 -0.000004 12.174000 5.392990 -2.711210 -2.192480 -6.469440 -0.000000 -173.405000 -13.010000 3.824860 39.081100 -0.000007 -0.000012 -0.224572 0.383228 30.370800 40.985400 -0.000006 -0.000013 -0.727378 5.487820 -72.486300 11.754300 -0.000000 0.000003 -0.000217 -0.001981 -16.652100 -2.192510 6.469440 -0.000001 172.614000 20.534900 -174.789000 -39.081100 -0.002282 -0.040193 -0.234936 0.411458 30.071500 -40.985400 0.000008 0.000006 4.254160 15.110900 -73.758900 -11.754300 -0.000006 -0.000006 -0.001722 -0.025179 -17.596900
0.000000 0.000000 0.000000 0.000000 0.000000 -0.000000 -1.503280 90.432700 2.988730 89.972500 -3.415750 11.155400 15.735700 0.000005 -0.000001 85.966800 82.429100 -85.871500 8.984550 -0.406207 -0.000000 7.340110 -1.061390 0.258624 16.377300 -0.000001 -0.000001 16.176300 -5.869240 2.641740 6.456720 -0.000001 -0.000000 9.902550 -6.842370 3.598590 12.994200 -0.242716 4.980390 -91.561900 5.254600 -73.419900 5.348090 -0.000007 -0.000001 -60.391600 35.964700 -17.731300 24.328600 0.000019 0.000005 9.672670 22.436900 -24.064500 22.291600 -0.000001 0.000005 4.368970 5.290280 0.343013 12.994500 -0.242716 -4.980390 88.147600 10.985100 -80.367400 -5.348130 -0.000001 -0.000004 -62.760800 34.521400 -10.703300 -24.328900 0.000322 -0.000009 1.339970 3.837490 -19.279100 -22.291500 -0.000108 -0.000004 12.167600 5.394120 -2.747310 -2.192480 -6.469440 -0.000000 -173.444000 -12.941700 3.807170 39.081100 -0.000007 -0.000012 -0.225698 0.385577 30.343000 40.985400 -0.000006 -0.000013 -0.723493 5.566270 -72.376600 11.754300 -0.000000 0.000003 -0.000218 -0.001991 -16.652500 -2.192510 6.469440 -0.000001 172.561000 20.607800 -174.777000 -39.081100 -0.002282 -0.040193 -0.236808 0.414343 30.092400 -40.985400 0.000008 0.000006 4.278610 15.070800 -73.719700 -11.754300 -0.000006 -0.000006 -0.001755 -0.025606 -17.614300
0.000000 0.000000 0.000000 0.000000 0.000000 -0.000000 -1.541820 90.440300 2.876790 90.005800 -3.261830 11.187500 15.735700 0.000005 -0.000001 85.970100 82.387400 -85.843000 8.984550 -0.406207 -0.000000 7.423780 -1.066330 0.323100 16.377300 -0.000001 -0.000001 16.203300 -6.103870 2.822540 6.456720 -0.000001 -0.000000 9.923900 -7.105290 4.040720 12.994200 -0.242716 4.980390 -91.590800 5.354290 -73.426100 5.348090 -0.000007 -0.000001 -58.569300 34.995300 -19.603500 24.328600 0.000019 0.000005 10.245700 22.117100 -25.644800 22.291600 -0.000001 0.000005 3.909160 5.297360 0.146263 12.994500 -0.242716 -4.980390 88.141500 11.001700 -80.350300 -5.348130 -0.000001 -0.000004 -62.948100 34.663700 -10.550500 -24.328900 0.000322 -0.000009 1.294960 3.635180 -19.637500 -22.291500 -0.000108 -0.000004 12.126900 5.396610 -2.827720 -2.192480 -6.469440 -0.000000 -173.492000 -12.809200 3.711870 39.081100 -0.000007 -0.000012 -0.223048 0.380695 30.366300 40.985400 -0.000006 -0.000013 -0.736792 5.579940 -72.287200 11.754300 -0.000000 0.000003 -0.000221 -0.002017 -16.653400 -2.192510 6.469440 -0.000001 172.554000 20.700500 -174.826000 -39.081100 -0.002282 -0.040193 -0.242092 0.422674 30.138700 -40.985400 0.000008 0.000006 4.300820 14.992100 -73.683600 -11.754300 -0.000006 -0.000006 -0.001781 -0.025939 -17.627900
0.000000 0.000000 0.000000 0.000000 0.000000 -0.000000 -1.590720 90.447500 2.757740 90.073200 -2.964810 11.326600 15.735700 0.000005 -0.000001 85.938800 82.312300 -85.802200 8.984550 -0.406207 -0.000000 7.573080 -1.084900 0.344612 16.377300 -0.000001 -0.000001 16.256900 -6.361420 3.015920 6.456720 -0.000001 -0.000000 10.004100 -7.371650 4.534950 12.994200 -0.242716 4.980390 -91.602700 5.423820 -73.510200 5.348090 -0.000007 -0.000001 -56.307100 33.403500 -22.039700 24.328600 0.000019 0.000005 11.153400 22.250700 -27.504400 22.291600 -0.000001 0.000005 3.601020 5.301590 0.028121 12.994500 -0.242716 -4.980390 88.137500 11.035200 -80.358200 -5.348130 -0.000001 -0.000004 -63.080800 34.995100 -10.375500 -24.328900 0.000322 -0.000009 1.251860 3.463800 -19.900000 -22.291500 -0.000108 -0.000004 12.203700 5.396010 -2.808440 -2.192480 -6.469440 -0.000000 -173.516000 -12.678300 3.708830 39.081100 -0.000007 -0.000012 -0.224808 0.383543 30.376400 40.985400 -0.000006 -0.000013 -0.712698 5.772800 -72.169800 11.754300 -0.000000 0.000003 -0.000209 -0.001920 -16.649900 -2.192510 6.469440 -0.000001 172.495000 20.793200 -174.744000 -39.081100 -0.002282 -0.040193 -0.236692 0.412601 30.185200 -40.985400 0.000008 0.000006 4.303230 14.811300 -73.662100 -11.754300 -0.000006 -0.000006 -0.001654 -0.024302 -17.561300
